<?xml version="1.0" standalone="no"?>
<!DOCTYPE svg PUBLIC "-//W3C//DTD SVG 20010904//EN"
 "http://www.w3.org/TR/2001/REC-SVG-20010904/DTD/svg10.dtd">
<svg version="1.0" xmlns="http://www.w3.org/2000/svg"
 width="300.000000pt" height="300.000000pt" viewBox="0 0 300.000000 300.000000"
 preserveAspectRatio="xMidYMid meet">
<metadata>
Created by potrace 1.14, written by Peter Selinger 2001-2017
</metadata>
<g transform="translate(0.000000,300.000000) scale(0.100000,-0.100000)"
fill="#000000" stroke="none">
<path d="M1636 2525 c-63 -33 -336 -293 -336 -320 0 -8 9 -19 19 -25 17 -8 25
-3 57 38 50 63 223 230 246 238 14 4 61 -26 171 -109 84 -64 159 -116 167
-117 31 -5 40 1 40 24 0 19 -8 27 -32 35 -32 11 -50 23 -184 118 -110 79 -110
78 -91 98 34 33 -5 47 -57 20z"/>
<path d="M1593 2323 c-23 -8 -14 -32 25 -71 56 -56 86 -34 41 29 -23 33 -48
48 -66 42z"/>
<path d="M580 1615 l0 -585 65 0 c55 0 65 3 66 18 0 9 0 56 0 103 l0 87 72 85
c40 47 74 86 77 86 3 1 57 -84 120 -189 l115 -190 73 0 c56 0 71 3 66 13 -5 6
-70 110 -146 231 -76 120 -140 222 -141 226 -2 7 214 279 251 317 11 11 0 13
-65 12 l-78 0 -75 -95 c-41 -53 -82 -104 -90 -114 -8 -10 -40 -48 -70 -86 -30
-37 -67 -81 -82 -98 l-26 -31 -1 380 c0 209 0 388 -1 398 0 14 -10 17 -65 17
l-65 0 0 -585z"/>
<path d="M1670 2147 c-3 -3 -26 -8 -51 -11 -39 -5 -138 -35 -201 -61 -20 -8
-22 -22 -9 -44 7 -11 22 -8 82 17 197 81 358 77 314 -8 -21 -41 -109 -115
-171 -146 -44 -21 -54 -31 -52 -48 5 -33 38 -30 105 11 219 133 246 281 53
291 -36 2 -67 2 -70 -1z"/>
<path d="M2323 1834 c-167 -44 -273 -197 -276 -398 -2 -211 105 -366 285 -412
230 -59 437 114 452 376 15 292 -207 501 -461 434z m185 -121 c151 -72 187
-374 61 -516 -86 -98 -227 -96 -313 5 -106 124 -86 399 37 492 59 45 144 53
215 19z"/>
<path d="M1260 1819 c0 -12 37 -113 65 -174 7 -16 65 -161 129 -322 126 -316
123 -301 81 -398 -29 -67 -79 -114 -130 -122 -44 -8 -41 -8 -71 1 -19 6 -23 1
-34 -45 -14 -58 -8 -68 45 -70 112 -4 183 26 244 104 46 60 76 128 145 332 26
77 51 149 56 160 5 11 15 40 23 65 9 25 49 143 91 263 l76 218 -67 -3 -66 -3
-32 -100 c-74 -232 -135 -425 -155 -493 -12 -40 -24 -71 -26 -69 -2 2 -28 73
-58 158 -30 85 -83 233 -119 329 l-65 175 -66 3 c-47 2 -66 -1 -66 -9z"/>
</g>
</svg>
