<?xml version="1.0" standalone="no"?>
<!DOCTYPE svg PUBLIC "-//W3C//DTD SVG 20010904//EN"
 "http://www.w3.org/TR/2001/REC-SVG-20010904/DTD/svg10.dtd">
<svg version="1.0" xmlns="http://www.w3.org/2000/svg"
 width="512.000000pt" height="512.000000pt" viewBox="0 0 512.000000 512.000000"
 preserveAspectRatio="xMidYMid meet">
<metadata>
Created by potrace 1.14, written by Peter Selinger 2001-2017
</metadata>
<g transform="translate(0.000000,512.000000) scale(0.100000,-0.100000)"
fill="#000000" stroke="none">
<path d="M2554 4462 c-74 -48 -360 -319 -386 -367 -11 -18 23 -58 42 -50 8 3
27 22 41 43 66 92 295 312 325 312 8 0 97 -62 197 -139 224 -169 235 -175 257
-141 19 29 10 47 -32 65 -24 11 -63 32 -88 49 -53 34 -223 158 -230 167 -3 3
-16 12 -30 19 l-24 13 22 15 c12 8 22 23 22 33 0 32 -51 23 -116 -19z"/>
<path d="M2522 4218 c-18 -18 -14 -46 8 -53 11 -3 32 -22 48 -41 20 -24 34
-33 45 -28 10 3 17 11 17 16 0 22 -34 80 -58 98 -29 23 -43 25 -60 8z"/>
<path d="M2641 4008 c-142 -15 -344 -81 -349 -115 -6 -45 11 -47 104 -10 200
80 383 99 403 44 13 -36 1 -59 -68 -127 -44 -44 -92 -78 -144 -104 -77 -39
-91 -58 -65 -84 16 -16 33 -15 76 5 100 45 239 169 268 238 19 47 18 68 -7 99
-38 48 -107 65 -218 54z"/>
<path d="M750 2620 l0 -1001 113 3 112 3 2 163 c1 89 2 170 2 180 1 10 11 29
24 42 12 14 67 76 121 140 55 63 103 115 107 115 8 0 69 -90 69 -101 0 -3 9
-17 19 -32 11 -15 85 -136 166 -269 l147 -243 124 0 124 0 -42 68 c-24 37
-116 182 -205 322 -251 395 -265 419 -256 434 4 7 27 35 49 62 139 164 384
465 384 471 0 6 -176 9 -236 4 -6 -1 -33 -27 -58 -58 -26 -32 -53 -65 -59 -73
-27 -32 -461 -575 -464 -579 -14 -20 -16 93 -17 676 l-1 668 -112 3 -113 2 0
-1000z"/>
<path d="M3755 3003 c-116 -24 -208 -76 -300 -168 -89 -89 -142 -182 -177
-310 -23 -82 -31 -280 -17 -370 46 -279 226 -486 479 -551 80 -20 249 -15 325
11 242 80 400 279 442 558 8 52 8 208 0 262 -59 396 -388 644 -752 568z m215
-187 c49 -11 129 -58 166 -98 97 -102 144 -254 139 -442 -3 -120 -16 -177 -61
-271 -75 -157 -197 -233 -358 -223 -85 6 -149 34 -211 92 -65 62 -116 154
-131 236 -3 14 -9 40 -14 58 -14 51 -5 259 14 327 35 126 103 227 189 282 69
43 177 59 267 39z"/>
<path d="M1916 2982 c-10 -2 -15 -9 -13 -15 3 -7 73 -183 157 -392 84 -209
158 -393 165 -410 7 -16 43 -106 80 -200 37 -93 75 -188 85 -210 10 -22 26
-63 36 -91 l18 -51 -27 -85 c-45 -141 -119 -243 -207 -284 -37 -18 -127 -24
-176 -11 l-31 8 -22 -86 c-12 -47 -19 -90 -16 -94 15 -25 186 -34 264 -14 188
48 304 194 421 528 23 66 64 185 92 265 28 80 63 181 78 225 16 44 62 179 105
300 42 121 94 272 116 335 22 63 43 122 46 130 3 8 7 20 9 25 1 6 12 37 23 69
12 33 21 60 21 60 0 3 -221 -2 -224 -5 -1 -2 -20 -58 -41 -124 -21 -66 -66
-208 -101 -315 -34 -107 -83 -262 -109 -345 -26 -82 -50 -161 -55 -175 -4 -14
-18 -60 -31 -103 -12 -42 -26 -74 -31 -69 -4 4 -38 97 -76 207 -37 110 -128
364 -202 565 l-134 365 -101 0 c-56 0 -109 -2 -119 -3z"/>
</g>
</svg>
